<!--?xml version="1.0" encoding="utf-8"?-->
<!-- Generator: Adobe Illustrator 18.1.1, SVG Export Plug-In . SVG Version: 6.00 Build 0)  -->

<svg version="1.1" id="_x31_0" xmlns="http://www.w3.org/2000/svg" xmlns:xlink="http://www.w3.org/1999/xlink" x="0px" y="0px" viewBox="0 0 512 512" style="width: 48px; height: 48px; opacity: 1;" xml:space="preserve">
<style type="text/css">
	.st0{fill:#374149;}
</style>
<g>
	<path class="st0" d="M447.934,117.512c-0.332-5.294-4.722-9.462-10.019-9.462h-56.176l-5.633-0.015c0,0.004,0,0.012,0,0.012
		l-0.16,0.003c1.918,18.211,2.715,36.578,3.274,53.906c0.082,0.641,0.082,1.36,0.082,1.996c0.477,10.672,0.715,22.133,0.875,34.551
		c0.118,9.039-2.93,18.125-9.316,24.523c-6.153,6.164-14.309,9.61-23.024,9.61c-17.57,0-32.105-14.375-32.266-32.027
		c-0.32-31.387-1.675-57.418-4.07-79.699c-0.48-4.555-1.038-8.786-1.598-12.86H202.091c-0.558,4.074-1.039,8.305-1.52,12.86
		c-2.476,22.281-3.832,48.312-4.07,79.699c-0.242,17.652-14.777,32.027-32.343,32.027c-17.813,0-32.344-14.539-32.344-32.664
		c0.156-14.938,0.477-28.43,1.035-40.969c0.554-16.176,1.434-33.363,3.226-50.332c0.016-0.153,0.031-0.309,0.051-0.461h-0.016
		c0.008-0.051,0.008-0.106,0.016-0.161H74.067c-5.297,0-9.683,4.165-10.019,9.45c-7.379,115.629-14.61,253.317-21.922,368.305
		C41.251,499.942,52.509,512,66.724,512h378.621c14.215,0,25.477-12.058,24.52-26.195
		C462.556,370.82,455.173,233.133,447.934,117.512z" style="fill: rgb(51, 51, 51);"></path>
	<path class="st0" d="M158.486,215.066c1.758,0.718,3.672,1.117,5.672,1.117c2.074,0,4.07-0.48,5.988-1.199
		c0,0,0.078-0.078,0.16-0.078c5.59-2.394,9.664-7.906,9.742-14.457c0.238-31.864,1.676-50.711,4.074-73.231
		c0.718-6.789,1.598-13.175,2.473-19.168c10.703-68.441,33.863-81.855,69.48-81.855c35.458,0,58.699,13.414,69.398,81.855
		c0.879,5.993,1.758,12.379,2.477,19.168c2.394,22.52,3.754,41.367,4.074,73.231c0.078,6.55,4.07,12.062,9.66,14.457
		c0.082,0,0.16,0.078,0.16,0.078c1.918,0.719,3.914,1.199,6.07,1.199c1.918,0,3.832-0.398,5.59-1.117
		c5.993-2.238,10.301-8.066,10.223-14.934c-0.238-28.512-1.438-48.238-4.313-73.793c-0.718-6.309-1.515-12.379-2.554-18.29
		c-5.637-34.961-15.742-62.976-33.262-81.758c-0.114-0.121-0.231-0.238-0.344-0.359c-1.852-1.957-3.782-3.82-5.801-5.57
		c-0.363-0.313-0.734-0.617-1.102-0.922c-1.832-1.531-3.722-2.985-5.699-4.344c-0.543-0.371-1.102-0.722-1.653-1.086
		c-1.902-1.234-3.855-2.41-5.886-3.489c-0.594-0.312-1.203-0.598-1.805-0.898c-2.113-1.05-4.281-2.042-6.535-2.926
		c-0.426-0.164-0.867-0.305-1.297-0.465C282.693,2.215,270.368,0,256.075,0c-14.382,0-26.781,2.23-37.621,6.282
		c-0.359,0.133-0.73,0.25-1.086,0.39c-2.339,0.91-4.586,1.934-6.773,3.027c-0.52,0.258-1.047,0.504-1.555,0.774
		c-2.133,1.121-4.175,2.347-6.16,3.644c-0.461,0.301-0.926,0.594-1.379,0.902c-2.078,1.422-4.066,2.946-5.984,4.551
		c-0.274,0.23-0.547,0.453-0.817,0.687c-2.129,1.832-4.156,3.782-6.098,5.84c-0.015,0.023-0.035,0.039-0.054,0.062
		c-17.625,18.778-27.766,46.844-33.418,81.89c-1.035,5.91-1.836,11.981-2.555,18.29c-2.875,25.554-3.914,45.281-4.312,73.793v0.16
		C148.263,207.078,152.575,212.828,158.486,215.066z" style="fill: rgb(51, 51, 51);"></path>
</g>
</svg>
